<svg xmlns="http://www.w3.org/2000/svg" xmlns:xlink="http://www.w3.org/1999/xlink" viewBox="0 0 24 24" version="1.1"><!-- Generator: Sketch 57.1 (83088) - https://sketch.com --><title>Icon / Widget / weather_BB</title><desc>Created with Sketch.</desc><g id="Icon-/-Widget-/-weather_BB" stroke="none" stroke-width="1" fill="none" fill-rule="evenodd"><path d="M3.16305565,13.5100812 C2.77030737,11.6846028 3.09238115,9.81141299 4.07172776,8.23486347 C5.05107436,6.65831394 6.56855679,5.56821292 8.34551558,5.16474071 C9.74184172,4.8483936 11.1785533,4.98945329 12.501176,5.57236174 C12.7041128,5.66259845 12.8262787,5.87833681 12.8030571,6.10341 C12.7798355,6.32952039 12.6162745,6.51414264 12.3992028,6.55770519 L12.2830947,6.57741206 C11.0775897,6.85123382 10.048771,7.59076001 9.38443069,8.66011696 C8.72110005,9.7284367 8.50200911,10.9990112 8.76855293,12.2374323 C9.31880437,14.7920649 11.7914021,16.4142513 14.2771252,15.8479382 L14.3124624,15.8375661 C14.5295341,15.7711851 14.7890105,15.8541614 14.9101668,16.0491557 C15.0303134,16.2451871 15.0373809,16.4920416 14.8859355,16.6652546 C13.9277912,17.7667649 12.6829105,18.5166631 11.2855747,18.8340474 C10.7928725,18.9460654 10.3001703,19 9.81453549,19 C6.68870343,19 3.86475244,16.7720866 3.16305565,13.5100812 Z" id="Path" fill="#9DABEC"/><path d="M22,14.68125 C22,16.5150457 20.4816562,18 18.62208,18 L10.97472,18 C9.33705258,18 8,16.6918119 8,15.075 C8,13.7458605 8.90940068,12.6078491 10.1674768,12.2595376 C10.7251255,10.3451174 12.5214939,9 14.5968,9 C16.2879112,9 17.8223021,9.91644684 18.6150881,11.3625083 C20.4816562,11.3625 22,12.8474543 22,14.68125 Z" id="cloud" fill="#E8ECFF"/></g></svg>