<svg data-v-29441d76="" xmlns="http://www.w3.org/2000/svg" viewBox="0 0 24 24" aria-labelledby="" role="presentation"><title data-v-29441d76="" lang="nl"></title><g data-v-29441d76=""><path fill="currentColor" fill-rule="evenodd" d="M11.571 19.772C10.354 18.693 6 14.485 6 9.501a5.578 5.578 0 0 1 5.571-5.571c3.073 0 5.572 2.5 5.572 5.571 0 4.977-4.355 9.191-5.572 10.271m0-16.842a6.579 6.579 0 0 1 6.572 6.571c0 6.13-5.791 10.94-6.24 11.305l-.019.015-.313.249-.312-.249C11.004 20.616 5 15.742 5 9.501a6.579 6.579 0 0 1 6.571-6.571zm0 3.643a2.931 2.931 0 0 0-2.928 2.928 2.932 2.932 0 0 0 2.928 2.93 2.932 2.932 0 0 0 2.93-2.93 2.932 2.932 0 0 0-2.93-2.928zm0 1c1.063 0 1.93.865 1.93 1.928a1.931 1.931 0 0 1-1.93 1.93A1.93 1.93 0 0 1 9.643 9.5a1.93 1.93 0 0 1 1.928-1.928z" data-v-29441d76=""/></g></svg>