<svg xmlns="http://www.w3.org/2000/svg" xmlns:xlink="http://www.w3.org/1999/xlink" viewBox="0 0 72 14" version="1.1"><!-- Generator: Sketch 63.1 (92452) - https://sketch.com --><title>Icon / Logo / Weerplaza light mode</title><desc>Created with Sketch.</desc><g id="Icon-/-Logo-/-Weerplaza-light-mode" stroke="none" stroke-width="1" fill="none" fill-rule="evenodd"><g><path d="M13.5,6.92307692 C13.5,10.5556154 10.5556154,13.5 6.92307692,13.5 C3.29053846,13.5 0.346153846,10.5556154 0.346153846,6.92307692 C0.346153846,3.29053846 3.29053846,0.346153846 6.92307692,0.346153846 C10.5556154,0.346153846 13.5,3.29053846 13.5,6.92307692" id="Fill-1" fill="#00A1E6"/><path d="M11.5961538,5.19230769 C11.5961538,6.435 10.5888462,7.44230769 9.34615385,7.44230769 C8.10346154,7.44230769 7.09615385,6.435 7.09615385,5.19230769 C7.09615385,3.94961538 8.10346154,2.94230769 9.34615385,2.94230769 C10.5888462,2.94230769 11.5961538,3.94961538 11.5961538,5.19230769" id="Fill-3" fill="#FFCE00"/><path d="M4.32692308,10.9038462 C2.99076923,10.9038462 1.90384615,9.81692308 1.90384615,8.48076923 C1.90384615,7.22319231 2.85646154,6.18819231 4.09569231,6.07153846 C4.43457692,4.93615385 5.47269231,4.15384615 6.66346154,4.15384615 C8.136,4.15384615 9.33542308,5.34669231 9.34615385,6.81646154 C9.51576923,6.77215385 9.68988462,6.75 9.86538462,6.75 C11.0108077,6.75 11.9423077,7.6815 11.9423077,8.82692308 C11.9423077,9.88373077 11.1561923,10.7581154 10.1239615,10.8855 L10.1239615,10.8996923 L9.95088462,10.9038462 L4.32692308,10.9038462 Z" id="Fill-5" fill="#FFFFFF"/><path d="M6.66346154,3.98076923 C5.43426923,3.98076923 4.35773077,4.76342308 3.96484615,5.91265385 C2.69342308,6.0885 1.73076923,7.17196154 1.73076923,8.48076923 C1.73076923,9.91246154 2.89523077,11.0769231 4.32692308,11.0769231 C4.35565385,11.0769231 4.38403846,11.0762308 4.41207692,11.0748462 L4.5,11.0769231 L9.95088462,11.0769231 L10.2970385,11.0769231 L10.2970385,11.0333077 C11.3396538,10.8321923 12.1153846,9.91973077 12.1153846,8.82692308 C12.1153846,7.58630769 11.106,6.57692308 9.86538462,6.57692308 C9.74596154,6.57692308 9.62723077,6.58626923 9.50988462,6.60530769 C9.39184615,5.13830769 8.16023077,3.98076923 6.66346154,3.98076923 M6.66346154,4.32692308 C8.04357692,4.32692308 9.17307692,5.45642308 9.17307692,6.83653846 C9.17307692,6.91165385 9.16823077,6.98573077 9.16165385,7.05911538 C9.37973077,6.97223077 9.6165,6.92307692 9.86538462,6.92307692 C10.917,6.92307692 11.7692308,7.77530769 11.7692308,8.82692308 C11.7692308,9.84946154 10.9623462,10.6812692 9.95088462,10.7262692 L9.95088462,10.7307692 L4.5,10.7307692 L4.5,10.7221154 C4.44253846,10.7262692 4.38542308,10.7307692 4.32692308,10.7307692 C3.08423077,10.7307692 2.07692308,9.72346154 2.07692308,8.48076923 C2.07692308,7.27096154 3.03265385,6.28684615 4.23,6.23561538 C4.50138462,5.1435 5.49034615,4.32692308 6.66346154,4.32692308" id="Fill-7" fill="#00A1E6"/><path d="M49.5547615,9.39011538 C49.1743385,9.93288462 48.6436846,10.2049615 47.9628,10.2053109 C47.4712615,10.206 47.0451462,10.0962692 46.6844538,9.87611538 C46.3234154,9.65596154 46.0458,9.33646154 45.8516077,8.91830769 L45.8474538,5.41384615 C46.0364538,4.959 46.3088769,4.61215385 46.6647231,4.37296154 C47.0209154,4.13411538 47.4466846,4.01434615 47.9427231,4.01365252 C48.6277615,4.01296154 49.1625692,4.28261538 49.5464538,4.82226923 C49.9303385,5.36192308 50.1228,6.09784615 50.1238427,7.02969231 C50.1248769,8.06053846 49.9351846,8.84734615 49.5547615,9.39011538 L49.5547615,9.39011538 Z M50.9352288,7.05565385 C50.9338385,5.88080769 50.6839154,4.96280769 50.1847615,4.30165385 C49.6859538,3.6405 48.9991846,3.31061538 48.1244538,3.3113066 C47.1237231,3.31234615 46.3597615,3.70280769 45.8329154,4.482 L45.7913769,3.44907692 L45.0405692,3.44976923 L45.0405692,13.5647308 L45.8564538,13.5636923 L45.8526462,9.83665385 C46.3853769,10.5379615 47.1524538,10.8882692 48.1531846,10.8872308 C49.0005692,10.8861923 49.6769538,10.5514615 50.1809538,9.88234615 C50.6853,9.21323077 50.9366077,8.30942308 50.9352288,7.17057692 L50.9352288,7.05565385 Z" id="Fill-9" fill="#1C1C1C"/><polygon id="Fill-11" fill="#1C1C1C" points="52.5099115 0.376061538 51.6981808 0.376753846 51.6981808 10.7482154 52.5099115 10.7475231"/><path d="M54.6747231,9.75925385 C54.3701077,9.4896 54.2174538,9.15002308 54.2171073,8.74017692 C54.2167615,8.24067692 54.4438385,7.84779231 54.8986846,7.56117692 C55.3538769,7.27490769 55.9849154,7.12675385 56.7921462,7.11671538 L58.2394154,7.11533077 L58.2411462,8.72217692 C58.0476462,9.15936923 57.7381846,9.50829231 57.3124154,9.76998462 C56.8866462,10.0316769 56.4030692,10.1625231 55.8620308,10.1632161 C55.3749923,10.1635615 54.9793385,10.0289077 54.6747231,9.75925385 L54.6747231,9.75925385 Z M59.2713,10.7399077 L59.2713,10.6589077 C59.1221077,10.3079077 59.0473385,9.77933077 59.0463,9.07248462 L59.0424923,5.61544615 C59.0283,4.8861 58.7853,4.31806154 58.3138385,3.91133077 C57.8416846,3.5046 57.1981846,3.30140769 56.3823,3.30244219 C55.5927231,3.30313846 54.9281077,3.51671538 54.3877615,3.94248462 C53.8470692,4.3686 53.5770692,4.87190769 53.5777615,5.45275385 L54.3894923,5.45829231 C54.3888,5.05329231 54.5733,4.70644615 54.9426462,4.4181 C55.3119923,4.12940769 55.7782615,3.98506154 56.3421462,3.98436923 C56.9600308,3.98367692 57.4301077,4.13286923 57.7530692,4.4316 C58.0753385,4.73102308 58.2373385,5.14156154 58.2376846,5.66356154 L58.2387231,6.49398462 L56.7713769,6.49571538 C55.7114538,6.49675385 54.8851846,6.70479231 54.2929154,7.11983077 C53.7006462,7.53452308 53.4046846,8.09736923 53.4057204,8.80871538 C53.4060692,9.40721538 53.6241462,9.90221538 54.0599538,10.2933692 C54.4950692,10.6845231 55.0648385,10.8797538 55.7682231,10.8790634 C56.2594154,10.8783692 56.7249923,10.7776385 57.1642615,10.5768692 C57.6038769,10.3761 57.9652615,10.0908692 58.2491077,9.72152308 C58.2723,10.1715231 58.3242231,10.5114462 58.4055692,10.7409462 L59.2713,10.7399077 Z" id="Fill-13" fill="#1C1C1C"/><polygon id="Fill-15" fill="#1C1C1C" points="65.4223846 4.03418077 65.4216923 3.42737308 60.0992308 3.43325769 60.0999231 4.13525769 64.4012308 4.13075769 59.9711538 10.1451808 59.9718462 10.7391808 65.7273462 10.73295 65.7266538 10.0510269 60.9722308 10.0562192"/><path d="M67.3157769,9.74537308 C67.0111615,9.47571923 66.8588538,9.13614231 66.8581611,8.72629615 C66.8578154,8.22679615 67.0848923,7.83391154 67.5397385,7.54729615 C67.9949308,7.26102692 68.6259692,7.11287308 69.4332,7.10283462 L70.8804692,7.10145 L70.8822,8.70829615 C70.6887,9.14548846 70.3792385,9.49441154 69.9534692,9.75610385 C69.5277,10.01745 69.0441231,10.1486423 68.5030846,10.1493353 C68.0160462,10.1496808 67.6203923,10.0150269 67.3157769,9.74537308 L67.3157769,9.74537308 Z M71.9123538,10.7260269 L71.9123538,10.6450269 C71.7631615,10.2940269 71.6883923,9.76545 71.6873538,9.05860385 L71.6835462,5.60156538 C71.6693538,4.87221923 71.4263538,4.30418077 70.9548923,3.89745 C70.4830846,3.49071923 69.8392385,3.28752692 69.0233538,3.28856142 C68.2341231,3.28925769 67.5691615,3.50283462 67.0288154,3.92860385 C66.4881231,4.35471923 66.2181231,4.85802692 66.2188154,5.43887308 L67.0305462,5.44441154 C67.0298538,5.03941154 67.2143538,4.69256538 67.5837,4.40421923 C67.9530462,4.11552692 68.4193154,3.97118077 68.9832,3.97048846 C69.6010846,3.96979615 70.0711615,4.11898846 70.3941231,4.41771923 C70.7163923,4.71714231 70.8783923,5.12768077 70.8787385,5.64968077 L70.8797769,6.48010385 L69.4124308,6.48183462 C68.3525077,6.48287308 67.5262385,6.69091154 66.9339692,7.10560385 C66.3417,7.52064231 66.0457385,8.08348846 66.0467742,8.79448846 C66.0471231,9.39333462 66.2652,9.88833462 66.7010077,10.2794885 C67.1361231,10.6706423 67.7058923,10.8658731 68.4092769,10.8648387 C68.9004692,10.8644885 69.3660462,10.7637577 69.8053154,10.5629885 C70.2449308,10.3622192 70.6063154,10.0769885 70.8901615,9.70764231 C70.9133538,10.1576423 70.9652769,10.4975654 71.0466231,10.7270654 L71.9123538,10.7260269 Z" id="Fill-17" fill="#1C1C1C"/><polygon id="Fill-19" fill="#1C1C1C" points="23.7250731 8.65284231 23.7655731 8.64591923 24.8968038 3.47161154 26.4641885 3.46988077 24.4810731 10.7508808 23.14215 10.7522654 21.58965 5.78253462 21.57615 5.71538077 21.5692269 5.78253462 20.0409577 10.7557269 18.7023808 10.7571115 16.7029962 3.48061154 18.2703808 3.47888077 19.4400346 8.57668846 19.4801885 8.58326538 20.9883808 3.47576538 22.17915 3.47472692"/><path d="M29.6730692,4.64334169 C29.2694538,4.64368846 28.9374923,4.80465 28.6778769,5.12553462 C28.4182615,5.44641923 28.2573,5.85384231 28.1949923,6.34711154 L28.2084923,6.38068846 L31.0943769,6.37757308 L31.0940308,6.20934231 C31.0936846,5.74757308 30.9756462,5.37095769 30.7399154,5.07949615 C30.5038385,4.78803462 30.1486846,4.64299615 29.6730692,4.64334169 M29.8683,10.8862293 C28.8367615,10.8872654 28.0143,10.5504577 27.4016077,9.87649615 C26.7885692,9.20184231 26.4815308,8.33576538 26.4804923,7.27722692 L26.4801435,7.00826538 C26.4791077,5.94972692 26.7816462,5.07153462 27.3888,4.37334231 C27.9956077,3.67549615 28.7568,3.32830385 29.6716846,3.33139845 C30.6537231,3.33072692 31.4066077,3.62668846 31.9296462,4.22068846 C32.4526846,4.81434231 32.7150692,5.61118846 32.7161077,6.61122692 L32.7171462,7.57318846 L28.1763,7.57803462 L28.1628,7.61161154 C28.1901462,8.18830385 28.3601077,8.65976538 28.6719923,9.02599615 C28.9842231,9.39222692 29.4162231,9.57465 29.9679923,9.57430385 C30.4072615,9.57361154 30.7838769,9.51961154 31.0978385,9.41126538 C31.4114538,9.30361154 31.7139923,9.14853462 32.0054538,8.94638077 L32.5312615,10.0177269 C32.2581462,10.2614192 31.8950308,10.4670346 31.4419154,10.6342269 C30.9894923,10.8014192 30.4647231,10.8855346 29.8683,10.8862293" id="Fill-21" fill="#1C1C1C"/><path d="M36.4688654,4.63589938 C36.06525,4.63624615 35.7332885,4.79720769 35.4736731,5.11809231 C35.2137115,5.43897692 35.05275,5.8464 34.9904423,6.33966923 L35.0042885,6.37324615 L37.8898269,6.37013077 L37.8894808,6.2019 C37.8894808,5.74013077 37.7710962,5.36351538 37.5357115,5.07205385 C37.2996346,4.78059231 36.9441346,4.63555385 36.4688654,4.63589938 M36.66375,10.878787 C35.6322115,10.8798231 34.8100962,10.5430154 34.1974038,9.86905385 C33.5843654,9.1944 33.2773269,8.32832308 33.2762885,7.26978462 L33.2759376,7.00082308 C33.2745577,5.94228462 33.5774423,5.06409231 34.1845962,4.3659 C34.7914038,3.66805385 35.5525962,3.32086154 36.4674808,3.32395614 C37.4495192,3.32328462 38.2020577,3.61924615 38.7254423,4.21324615 C39.2481346,4.8069 39.5105192,5.60374615 39.5115577,6.60378462 L39.5125962,7.56574615 L34.97175,7.57059231 L34.95825,7.60416923 C34.9859423,8.18086154 35.1559038,8.65232308 35.4677885,9.01855385 C35.7800192,9.38478462 36.2116731,9.56720769 36.7634423,9.56686154 C37.2030577,9.56616923 37.5793269,9.51216923 37.8932885,9.40382308 C38.2069038,9.29616923 38.5097885,9.14109231 38.8009038,8.93893846 L39.3270577,10.0102846 C39.0535962,10.2539769 38.6904808,10.4595923 38.2377115,10.6267846 C37.7852885,10.7939769 37.2601731,10.8780923 36.66375,10.878787" id="Fill-23" fill="#1C1C1C"/><path d="M43.9578346,4.92372692 L43.2582577,4.89741923 C42.9397962,4.89776538 42.6742962,4.96561154 42.4614115,5.10026538 C42.2485269,5.23526538 42.0837577,5.42599615 41.96745,5.67280385 L41.9729885,10.7314962 L40.3381038,10.7335731 L40.3304885,3.45430385 L41.8237962,3.45291923 L41.9324885,4.50868846 C42.11595,4.13657308 42.3523731,3.84476538 42.6414115,3.63326538 C42.93045,3.42245769 43.26345,3.31653462 43.6400654,3.31618846 C43.7383731,3.31618846 43.8307962,3.32380385 43.91595,3.33938077 C44.0011038,3.35530385 44.0796808,3.37399615 44.1516808,3.39615 L43.9578346,4.92372692 Z" id="Fill-25" fill="#1C1C1C"/><path d="M6.92307692,0.173076923 C3.20123077,0.173076923 0.173076923,3.20123077 0.173076923,6.92307692 C0.173076923,10.6449231 3.20123077,13.6730769 6.92307692,13.6730769 C10.6449231,13.6730769 13.6730769,10.6449231 13.6730769,6.92307692 C13.6730769,3.20123077 10.6449231,0.173076923 6.92307692,0.173076923" id="Fill-27" fill="#00A1E6"/><path d="M11.5961538,5.19230769 C11.5961538,6.435 10.5888462,7.44230769 9.34615385,7.44230769 C8.10346154,7.44230769 7.09615385,6.435 7.09615385,5.19230769 C7.09615385,3.94961538 8.10346154,2.94230769 9.34615385,2.94230769 C10.5888462,2.94230769 11.5961538,3.94961538 11.5961538,5.19230769" id="Fill-29" fill="#FFCE00"/><path d="M4.32692308,10.9038462 C2.99076923,10.9038462 1.90384615,9.81692308 1.90384615,8.48076923 C1.90384615,7.22319231 2.85646154,6.18819231 4.09569231,6.07153846 C4.43457692,4.93615385 5.47269231,4.15384615 6.66346154,4.15384615 C8.136,4.15384615 9.33542308,5.34669231 9.34615385,6.81646154 C9.51576923,6.77215385 9.68988462,6.75 9.86538462,6.75 C11.0108077,6.75 11.9423077,7.6815 11.9423077,8.82692308 C11.9423077,9.88373077 11.1561923,10.7581154 10.1239615,10.8855 L10.1239615,10.8996923 L9.95088462,10.9038462 L4.32692308,10.9038462 Z" id="Fill-31" fill="#FFFFFF"/><path d="M6.66346154,3.98076923 C5.43426923,3.98076923 4.35773077,4.76342308 3.96484615,5.91265385 C2.69342308,6.0885 1.73076923,7.17196154 1.73076923,8.48076923 C1.73076923,9.91246154 2.89523077,11.0769231 4.32692308,11.0769231 C4.35565385,11.0769231 4.38403846,11.0762308 4.41207692,11.0748462 L4.5,11.0769231 L9.95088462,11.0769231 L10.2970385,11.0769231 L10.2970385,11.0333077 C11.3396538,10.8321923 12.1153846,9.91973077 12.1153846,8.82692308 C12.1153846,7.58630769 11.106,6.57692308 9.86538462,6.57692308 C9.74596154,6.57692308 9.62723077,6.58626923 9.50988462,6.60530769 C9.39184615,5.13830769 8.16023077,3.98076923 6.66346154,3.98076923 M6.66346154,4.32692308 C8.04357692,4.32692308 9.17307692,5.45642308 9.17307692,6.83653846 C9.17307692,6.91165385 9.16823077,6.98573077 9.16165385,7.05911538 C9.37973077,6.97223077 9.6165,6.92307692 9.86538462,6.92307692 C10.917,6.92307692 11.7692308,7.77530769 11.7692308,8.82692308 C11.7692308,9.84946154 10.9623462,10.6812692 9.95088462,10.7262692 L9.95088462,10.7307692 L4.5,10.7307692 L4.5,10.7221154 C4.44253846,10.7262692 4.38542308,10.7307692 4.32692308,10.7307692 C3.08423077,10.7307692 2.07692308,9.72346154 2.07692308,8.48076923 C2.07692308,7.27096154 3.03265385,6.28684615 4.23,6.23561538 C4.50138462,5.1435 5.49034615,4.32692308 6.66346154,4.32692308" id="Fill-33" fill="#00A1E6"/></g></g></svg>