<svg xmlns="http://www.w3.org/2000/svg" viewBox="0 0 24 24" aria-labelledby="" role="presentation" data-v-29441d76=""><title lang="nl" data-v-29441d76=""></title><g data-v-29441d76=""><path d="M18.866 16.669c-.9-.63-3.265-1.718-3.366-1.764a.536.536 0 0 0-.72.294.584.584 0 0 0 .281.753c.024.011 2.375 1.092 3.196 1.665.573.402.693.851.633 1.057-.035.122-.213.326-.395.326H5.5c-.182 0-.355-.204-.39-.326-.06-.206.06-.655.632-1.057.82-.573 3.173-1.654 3.196-1.665a.583.583 0 0 0 .282-.753.54.54 0 0 0-.72-.294c-.1.046-2.466 1.133-3.367 1.764-.883.617-1.303 1.535-1.07 2.338.178.612.705.993 1.375.993h13.123c.67 0 1.197-.381 1.375-.993.233-.803-.187-1.721-1.07-2.338zM8.72 8.57c0-1.89 1.472-3.429 3.281-3.429 1.81 0 3.281 1.54 3.281 3.429v2.286c0 1.89-1.472 3.428-3.28 3.428-1.81 0-3.282-1.537-3.282-3.428V8.571zM12 15.429c2.406 0 4.374-2.058 4.374-4.572V8.571C16.374 6.058 14.406 4 12 4 9.594 4 7.625 6.058 7.625 8.571v2.286c0 2.514 1.97 4.572 4.375 4.572z" fill="currentColor" fill-rule="nonzero" data-v-29441d76=""/></g></svg>