<svg xmlns="http://www.w3.org/2000/svg" xmlns:xlink="http://www.w3.org/1999/xlink" viewBox="0 0 24 24" version="1.1"><!-- Generator: Sketch 57.1 (83088) - https://sketch.com --><title>Icon / Widget / weather_D</title><desc>Created with Sketch.</desc><g id="Icon-/-Widget-/-weather_D" stroke="none" stroke-width="1" fill="none" fill-rule="evenodd"><circle id="sun" fill="#FFE07F" cx="10" cy="12" r="7"/><path d="M11.9995,12.9987 C11.7235,12.9987 11.4995,12.7747 11.4995,12.4987 C11.4995,12.2227 11.7235,11.9987 11.9995,11.9987 L18.9995,11.9987 C19.2755,11.9987 19.4995,12.2227 19.4995,12.4987 C19.4995,12.7747 19.2755,12.9987 18.9995,12.9987 L11.9995,12.9987 Z" id="Fill-1" fill="#DDDDDD"/><path d="M10.9995,14.9987 C10.7235,14.9987 10.4995,14.7747 10.4995,14.4987 C10.4995,14.2227 10.7235,13.9987 10.9995,13.9987 L18.9995,13.9987 C19.2755,13.9987 19.4995,14.2227 19.4995,14.4987 C19.4995,14.7747 19.2755,14.9987 18.9995,14.9987 L10.9995,14.9987 Z" id="Fill-3" fill="#DDDDDD"/><path d="M11.9995,16.9987 C11.7235,16.9987 11.4995,16.7747 11.4995,16.4987 C11.4995,16.2227 11.7235,15.9987 11.9995,15.9987 L19.9995,15.9987 C20.2755,15.9987 20.4995,16.2227 20.4995,16.4987 C20.4995,16.7747 20.2755,16.9987 19.9995,16.9987 L11.9995,16.9987 Z" id="Fill-5" fill="#DDDDDD"/></g></svg>