<svg xmlns="http://www.w3.org/2000/svg" viewBox="0 0 24 24" aria-labelledby="Voetbal wedstrijden" role="presentation" data-v-29441d76=""><title lang="nl" data-v-29441d76="">Voetbal wedstrijden</title><g data-v-29441d76=""><g fill="currentColor" fill-rule="evenodd" data-v-29441d76=""><path d="M3.5 18.89a.502.502 0 00.354-.146l1.89-1.89a.5.5 0 00-.707-.708l-1.89 1.89a.502.502 0 00.353.854m5.537 1.256l-1.89 1.891a.5.5 0 00.706.707l1.891-1.89a.5.5 0 00-.707-.708m-2.891-1l-3 3a.5.5 0 00.707.707l3-3a.5.5 0 00-.707-.707m8.526-5.085l-2.076-.809.16-2.033 2.268-.176.98 1.67-1.332 1.348zm1.057-3.793a.506.506 0 00-.47-.246l-3.006.232a.501.501 0 00-.46.46l-.224 2.83a.5.5 0 00.317.505l2.729 1.063a.506.506 0 00.537-.114l1.833-1.855a.5.5 0 00.077-.604l-1.333-2.27z"/><path d="M9.62 15.342l-.016 1.833a6.504 6.504 0 01-1.66-2.63l1.676.797zm.44-6.887l-1.234.273a6.556 6.556 0 011.507-1.508l-.273 1.235zm6.887-.44l-.799-1.682a6.5 6.5 0 012.64 1.666l-1.84.016zm2.74 5.524l.91-.803a6.463 6.463 0 01-.483 2.247l-.428-1.444zm-2.3 4.565a6.446 6.446 0 01-2.98.88l1.232-1.398 1.748.518zm1.47-1.18a6.383 6.383 0 01-.449.438l-2.575-.762a.856.856 0 00-.88.253l-1.82 2.065c-.105-.016-.21-.026-.314-.048a6.386 6.386 0 01-.64-.163 6.506 6.506 0 01-1.583-.746l.025-2.705a.85.85 0 00-.485-.776l-2.47-1.173c-.004-.023-.009-.045-.012-.068a6.59 6.59 0 01-.043-.768c0-.071.008-.14.01-.21.007-.19.02-.38.044-.57a6.295 6.295 0 01.153-.796c.021-.083.04-.168.064-.251.071-.235.152-.467.25-.694.007-.017.016-.033.024-.05l2.214-.49a.852.852 0 00.646-.646l.49-2.216c.022-.01.043-.022.066-.032.215-.091.434-.17.656-.236.1-.03.203-.053.305-.08.151-.036.304-.07.458-.097.103-.017.206-.035.311-.047.183-.023.367-.036.551-.043.073-.003.146-.01.22-.011.257-.001.515.014.774.043.021.002.041.007.063.01l1.175 2.475a.856.856 0 00.776.486l2.711-.025c.064.1.126.2.185.304.03.052.061.104.09.157.063.119.12.242.175.365.037.08.074.16.108.243a7.419 7.419 0 01.297.94c.026.109.05.219.071.329.01.048.014.096.021.143l-1.565 1.38a.85.85 0 00-.254.88l.735 2.483c-.047.067-.097.132-.147.197a6.358 6.358 0 01-.43.513zm2.696-5.302c-.005-.076-.02-.131-.029-.19a6.96 6.96 0 00-.353-1.434c-.035-.096-.067-.191-.105-.285a7.257 7.257 0 00-.233-.516c-.043-.086-.08-.174-.125-.26a7.502 7.502 0 00-.4-.652c-.018-.027-.032-.056-.05-.083-.01-.014-.027-.021-.038-.034a7.495 7.495 0 00-4.862-3.055c-.083-.023-.13-.021-.178-.027a7.46 7.46 0 00-.917-.078c-.039-.001-.079-.006-.119-.006a7.344 7.344 0 00-.993.066c-.09.012-.18.027-.27.042a7.374 7.374 0 00-.833.185c-.054.015-.11.025-.164.042-.3.093-.588.21-.872.34-.05.023-.106.037-.156.06-.018.01-.029.027-.046.038A7.537 7.537 0 007.38 9.21c-.01.015-.025.023-.032.039-.02.044-.032.09-.052.133a7.541 7.541 0 00-.354.907c-.015.048-.023.095-.037.143-.078.274-.14.555-.187.842-.015.094-.03.188-.043.284a7.497 7.497 0 00-.066.94c.002.089.01.146.01.203.008.294.034.58.075.865.007.05.005.102.013.153a7.574 7.574 0 003.05 4.877c.018.017.028.042.05.056.401.283.836.51 1.285.708.046.02.091.043.138.063a7.412 7.412 0 00.78.27c.178.053.356.102.538.14.078.017.157.027.235.04.16.03.32.068.481.086a9.229 9.229 0 00.845.04 7.457 7.457 0 004.698-1.663c.02-.011.04-.013.057-.026a8.16 8.16 0 00.551-.501c.375-.375.71-.787.991-1.225.013-.02.015-.044.024-.065a7.441 7.441 0 001.18-4.02c0-.297-.023-.59-.057-.878z"/></g></g></svg>