<svg xmlns="http://www.w3.org/2000/svg" viewBox="0 0 24 24" aria-labelledby="Beurs aandelen" role="presentation" data-v-29441d76=""><title lang="nl" data-v-29441d76="">Beurs aandelen</title><g data-v-29441d76=""><g fill="currentColor" fill-rule="nonzero" data-v-29441d76=""><path d="M10.316 8.642l-5.49 4.737a.5.5 0 1 1-.653-.758L9.97 7.62a.5.5 0 0 1 .63-.018l3.51 2.679 3.893-4.685a.5.5 0 1 1 .769.639l-4.199 5.054a.5.5 0 0 1-.688.078l-3.57-2.724zM5 17v2h2v-2H5zm0-1h2a1 1 0 0 1 1 1v2a1 1 0 0 1-1 1H5a1 1 0 0 1-1-1v-2a1 1 0 0 1 1-1zM11 15v4h2v-4h-2zm0-1h2a1 1 0 0 1 1 1v4a1 1 0 0 1-1 1h-2a1 1 0 0 1-1-1v-4a1 1 0 0 1 1-1zM17 13v6h2v-6h-2zm0-1h2a1 1 0 0 1 1 1v6a1 1 0 0 1-1 1h-2a1 1 0 0 1-1-1v-6a1 1 0 0 1 1-1z"/><path d="M16.189 5.968a.5.5 0 1 1-.182-.983l2.944-.543a.5.5 0 0 1 .583.405l.52 2.955a.5.5 0 1 1-.984.173l-.434-2.458-2.447.451z"/></g></g></svg>