<svg xmlns="http://www.w3.org/2000/svg" viewBox="0 0 24 24" aria-labelledby="Huidige verkeerssituatie" role="presentation" data-v-29441d76=""><title lang="nl" data-v-29441d76="">Huidige verkeerssituatie</title><g data-v-29441d76=""><g data-v-29441d76=""><defs><path id="a" d="M14 0v6H0V0z"/></defs><g fill="currentColor" fill-rule="evenodd"><path fill="currentColor" d="M5.233 14C4.553 14 4 14.523 4 15.167v2.5c0 .161.096.333.366.333h11.267c.177 0 .367-.134.367-.333v-2.5c0-.644-.554-1.167-1.234-1.167H5.233zm10.4 5H4.366C3.587 19 3 18.427 3 17.667v-2.5C3 13.972 4.002 13 5.233 13h9.533c1.232 0 2.234.972 2.234 2.167v2.5c0 .735-.614 1.333-1.367 1.333z"/><path fill="currentColor" d="M4.367 14.11a.5.5 0 0 1-.5-.5c0-1.26.916-3.61 2.667-3.61h3.899a.499.499 0 1 1 0 1h-3.9c-.92 0-1.666 1.58-1.666 2.61a.5.5 0 0 1-.5.5"/><path fill="currentColor" d="M15.633 14.11a.5.5 0 0 1-.5-.5c0-1.03-.747-2.61-1.667-2.61H9.567a.5.5 0 1 1 0-1h3.9c1.75 0 2.666 2.35 2.666 3.61a.5.5 0 0 1-.5.5M11.3 17H8.7a.5.5 0 0 1 0-1h2.6a.5.5 0 0 1 0 1M7 16a1 1 0 1 1-2 0 1 1 0 0 1 2 0M15 16a1 1 0 1 1-2 0 1 1 0 0 1 2 0M5 20a1 1 0 0 0 2 0v-1H5v1zM13 19v1a1 1 0 0 0 2 0v-1h-2z"/><g transform="translate(8 7)"><mask id="b" fill="currentColor"><use xmlns:xlink="http://www.w3.org/1999/xlink" xlink:href="#a"/></mask><path fill="currentColor" d="M12.633 6h-5.18a.5.5 0 1 1 0-1h5.18c.177 0 .367-.134.367-.333v-2.5C13 1.523 12.446 1 11.766 1H2.233C1.553 1 1 1.523 1 2.167V3a.5.5 0 0 1-1 0v-.833C0 .972 1.002 0 2.233 0h9.533C12.998 0 14 .972 14 2.167v2.5C14 5.402 13.386 6 12.633 6" mask="url(#b)"/></g><path fill="currentColor" d="M9.367 8.11a.5.5 0 0 1-.5-.5c0-1.26.916-3.61 2.667-3.61h3.899a.499.499 0 1 1 0 1h-3.9c-.92 0-1.666 1.58-1.666 2.61a.5.5 0 0 1-.5.5"/><path fill="currentColor" d="M20.633 8.11a.5.5 0 0 1-.5-.5c0-1.03-.747-2.61-1.667-2.61h-3.899a.5.5 0 1 1 0-1h3.9c1.75 0 2.666 2.35 2.666 3.61a.5.5 0 0 1-.5.5M16.3 11h-2.6a.5.5 0 0 1 0-1h2.6a.5.5 0 0 1 0 1M12 10a1 1 0 1 1-2 0 1 1 0 0 1 2 0M20 10a1 1 0 1 1-2 0 1 1 0 0 1 2 0M18 13v1a1 1 0 0 0 2 0v-1h-2z"/></g></g></g></svg>