<svg xmlns="http://www.w3.org/2000/svg" viewBox="0 0 24 24" aria-labelledby="TV Gids" role="presentation" data-v-29441d76=""><title lang="nl" data-v-29441d76="">TV Gids</title><g data-v-29441d76=""><g fill="currentColor" fill-rule="evenodd" data-v-29441d76=""><path d="M6.5 9C5.673 9 5 9.673 5 10.5v7c0 .827.673 1.5 1.5 1.5h11c.827 0 1.5-.673 1.5-1.5v-7c0-.827-.673-1.5-1.5-1.5h-11zm11 11h-11A2.503 2.503 0 014 17.5v-7C4 9.122 5.122 8 6.5 8h11c1.378 0 2.5 1.122 2.5 2.5v7c0 1.378-1.122 2.5-2.5 2.5z"/><path d="M11.641 8.848c-.897-.926-2.239-2.295-2.42-2.439 0 0-.258-.211-.221-.409.048-.251.391-.488.391-.488.322-.075.34-.076 2.615 2.276l3.64-3.642a.5.5 0 01.707.707l-4 4a.497.497 0 01-.712-.005zM7 11v6h7.999L15 11H7zm8 6v.5-.5zm0 1H7c-.551 0-1-.449-1-1v-6c0-.551.449-1 1-1h8c.551 0 1 .449 1 1v6c0 .551-.449 1-1 1zm3-7.5a.5.5 0 11-1 0 .5.5 0 011 0m0 2a.5.5 0 11-1 0 .5.5 0 011 0"/></g></g></svg>