<svg xmlns="http://www.w3.org/2000/svg" viewBox="0 0 24 24" aria-labelledby="" role="presentation" data-v-29441d76=""><title lang="nl" data-v-29441d76=""></title><g data-v-29441d76=""><path fill="currentColor" fill-rule="evenodd" d="M12.75 18.498c-3.096 0-5.893-2.148-6.588-5.293a6.702 6.702 0 0 1 .9-5.086 6.705 6.705 0 0 1 4.233-2.96 6.713 6.713 0 0 1 4.116.393.501.501 0 0 1-.101.95l-.162-.34-.021.05.068.309a4.548 4.548 0 0 0-2.871 2.008 4.547 4.547 0 0 0-.61 3.449 4.582 4.582 0 0 0 5.456 3.481l.084.324-.05-.334c.216-.064.473.016.593.204.119.189.126.427-.024.594a6.738 6.738 0 0 1-5.023 2.251zM12.747 6c-.413 0-.827.045-1.236.136a5.707 5.707 0 0 0-3.606 2.521 5.71 5.71 0 0 0-.767 4.332 5.708 5.708 0 0 0 2.52 3.605 5.719 5.719 0 0 0 4.334.767 5.7 5.7 0 0 0 1.902-.801 5.588 5.588 0 0 1-5.157-4.367 5.541 5.541 0 0 1 .744-4.202 5.55 5.55 0 0 1 2.09-1.93A5.553 5.553 0 0 0 12.747 6z" data-v-29441d76=""/></g></svg>